<mxfile host="Electron" modified="2024-05-09T06:54:16.640Z" agent="Mozilla/5.0 (Windows NT 10.0; Win64; x64) AppleWebKit/537.36 (KHTML, like Gecko) draw.io/24.2.5 Chrome/120.0.6099.109 Electron/28.1.0 Safari/537.36" etag="oUPRziN1eJsyBr2GH6Av" version="24.2.5" type="device">
  <diagram name="Page-1" id="JYs-6FvffgF8JloIR5GL">
    <mxGraphModel dx="1193" dy="881" grid="1" gridSize="10" guides="1" tooltips="1" connect="1" arrows="1" fold="1" page="1" pageScale="1" pageWidth="827" pageHeight="1169" math="0" shadow="0">
      <root>
        <mxCell id="0" />
        <mxCell id="1" parent="0" />
        <mxCell id="gtVNpjJV5EvvRc4tXwbz-1" value="" style="html=1;whiteSpace=wrap;" vertex="1" parent="1">
          <mxGeometry x="520" y="60" width="510" height="740" as="geometry" />
        </mxCell>
        <mxCell id="gtVNpjJV5EvvRc4tXwbz-3" value="Student&lt;div&gt;&lt;br&gt;&lt;/div&gt;" style="shape=umlActor;verticalLabelPosition=bottom;verticalAlign=top;html=1;" vertex="1" parent="1">
          <mxGeometry x="352.5" y="140" width="40" height="70" as="geometry" />
        </mxCell>
        <mxCell id="gtVNpjJV5EvvRc4tXwbz-4" value="Guest" style="shape=umlActor;verticalLabelPosition=bottom;verticalAlign=top;html=1;" vertex="1" parent="1">
          <mxGeometry x="330" y="610" width="42.5" height="80" as="geometry" />
        </mxCell>
        <mxCell id="gtVNpjJV5EvvRc4tXwbz-9" value="«subsystem»&lt;br&gt;&lt;b&gt;On Demand Tutor&lt;/b&gt;" style="html=1;whiteSpace=wrap;" vertex="1" parent="1">
          <mxGeometry x="520" y="60" width="110" height="50" as="geometry" />
        </mxCell>
        <mxCell id="gtVNpjJV5EvvRc4tXwbz-10" value="Login" style="ellipse;whiteSpace=wrap;html=1;" vertex="1" parent="1">
          <mxGeometry x="685.5" y="140" width="140" height="70" as="geometry" />
        </mxCell>
        <mxCell id="gtVNpjJV5EvvRc4tXwbz-11" value="Moderator" style="shape=umlActor;verticalLabelPosition=bottom;verticalAlign=top;html=1;" vertex="1" parent="1">
          <mxGeometry x="1110" y="350" width="60" height="100" as="geometry" />
        </mxCell>
        <mxCell id="gtVNpjJV5EvvRc4tXwbz-21" value="Administrator" style="shape=umlActor;verticalLabelPosition=bottom;verticalAlign=top;html=1;" vertex="1" parent="1">
          <mxGeometry x="1300" y="350" width="57" height="90" as="geometry" />
        </mxCell>
        <mxCell id="gtVNpjJV5EvvRc4tXwbz-24" value="Tutor" style="shape=umlActor;verticalLabelPosition=bottom;verticalAlign=top;html=1;" vertex="1" parent="1">
          <mxGeometry x="347.5" y="320" width="45" height="80" as="geometry" />
        </mxCell>
        <mxCell id="gtVNpjJV5EvvRc4tXwbz-29" value="Post" style="ellipse;whiteSpace=wrap;html=1;" vertex="1" parent="1">
          <mxGeometry x="685.5" y="250" width="140" height="70" as="geometry" />
        </mxCell>
        <mxCell id="gtVNpjJV5EvvRc4tXwbz-30" value="Search" style="ellipse;whiteSpace=wrap;html=1;" vertex="1" parent="1">
          <mxGeometry x="685.5" y="350" width="140" height="70" as="geometry" />
        </mxCell>
        <mxCell id="gtVNpjJV5EvvRc4tXwbz-31" value="Rating/Feedback" style="ellipse;whiteSpace=wrap;html=1;" vertex="1" parent="1">
          <mxGeometry x="685.5" y="460" width="140" height="70" as="geometry" />
        </mxCell>
        <mxCell id="gtVNpjJV5EvvRc4tXwbz-32" value="Upload Video" style="ellipse;whiteSpace=wrap;html=1;" vertex="1" parent="1">
          <mxGeometry x="685.5" y="580" width="140" height="70" as="geometry" />
        </mxCell>
        <mxCell id="gtVNpjJV5EvvRc4tXwbz-33" value="Responsible" style="ellipse;whiteSpace=wrap;html=1;" vertex="1" parent="1">
          <mxGeometry x="686" y="690" width="140" height="70" as="geometry" />
        </mxCell>
        <mxCell id="gtVNpjJV5EvvRc4tXwbz-36" value="" style="endArrow=none;html=1;edgeStyle=orthogonalEdgeStyle;rounded=0;exitX=0.5;exitY=0.5;exitDx=0;exitDy=0;exitPerimeter=0;entryX=0;entryY=0.5;entryDx=0;entryDy=0;" edge="1" parent="1" source="gtVNpjJV5EvvRc4tXwbz-3" target="gtVNpjJV5EvvRc4tXwbz-10">
          <mxGeometry relative="1" as="geometry">
            <mxPoint x="600" y="230" as="sourcePoint" />
            <mxPoint x="760" y="230" as="targetPoint" />
            <Array as="points">
              <mxPoint x="390" y="175" />
            </Array>
          </mxGeometry>
        </mxCell>
        <mxCell id="gtVNpjJV5EvvRc4tXwbz-37" value="parent" style="edgeLabel;resizable=0;html=1;align=left;verticalAlign=bottom;" connectable="0" vertex="1" parent="gtVNpjJV5EvvRc4tXwbz-36">
          <mxGeometry x="-1" relative="1" as="geometry" />
        </mxCell>
        <mxCell id="gtVNpjJV5EvvRc4tXwbz-38" value="child" style="edgeLabel;resizable=0;html=1;align=right;verticalAlign=bottom;" connectable="0" vertex="1" parent="gtVNpjJV5EvvRc4tXwbz-36">
          <mxGeometry x="1" relative="1" as="geometry" />
        </mxCell>
        <mxCell id="gtVNpjJV5EvvRc4tXwbz-40" value="" style="endArrow=none;html=1;edgeStyle=orthogonalEdgeStyle;rounded=0;exitX=0.5;exitY=0.5;exitDx=0;exitDy=0;exitPerimeter=0;entryX=0;entryY=0.5;entryDx=0;entryDy=0;" edge="1" parent="1" source="gtVNpjJV5EvvRc4tXwbz-4" target="gtVNpjJV5EvvRc4tXwbz-30">
          <mxGeometry relative="1" as="geometry">
            <mxPoint x="600" y="440" as="sourcePoint" />
            <mxPoint x="760" y="440" as="targetPoint" />
          </mxGeometry>
        </mxCell>
        <mxCell id="gtVNpjJV5EvvRc4tXwbz-41" value="parent" style="edgeLabel;resizable=0;html=1;align=left;verticalAlign=bottom;" connectable="0" vertex="1" parent="gtVNpjJV5EvvRc4tXwbz-40">
          <mxGeometry x="-1" relative="1" as="geometry" />
        </mxCell>
        <mxCell id="gtVNpjJV5EvvRc4tXwbz-42" value="child" style="edgeLabel;resizable=0;html=1;align=right;verticalAlign=bottom;" connectable="0" vertex="1" parent="gtVNpjJV5EvvRc4tXwbz-40">
          <mxGeometry x="1" relative="1" as="geometry" />
        </mxCell>
        <mxCell id="gtVNpjJV5EvvRc4tXwbz-43" value="" style="endArrow=none;html=1;edgeStyle=orthogonalEdgeStyle;rounded=0;exitX=0.5;exitY=0.5;exitDx=0;exitDy=0;exitPerimeter=0;entryX=0;entryY=0.5;entryDx=0;entryDy=0;" edge="1" parent="1" source="gtVNpjJV5EvvRc4tXwbz-24" target="gtVNpjJV5EvvRc4tXwbz-29">
          <mxGeometry relative="1" as="geometry">
            <mxPoint x="600" y="440" as="sourcePoint" />
            <mxPoint x="760" y="440" as="targetPoint" />
          </mxGeometry>
        </mxCell>
        <mxCell id="gtVNpjJV5EvvRc4tXwbz-44" value="parent" style="edgeLabel;resizable=0;html=1;align=left;verticalAlign=bottom;" connectable="0" vertex="1" parent="gtVNpjJV5EvvRc4tXwbz-43">
          <mxGeometry x="-1" relative="1" as="geometry" />
        </mxCell>
        <mxCell id="gtVNpjJV5EvvRc4tXwbz-45" value="child" style="edgeLabel;resizable=0;html=1;align=right;verticalAlign=bottom;" connectable="0" vertex="1" parent="gtVNpjJV5EvvRc4tXwbz-43">
          <mxGeometry x="1" relative="1" as="geometry" />
        </mxCell>
        <mxCell id="gtVNpjJV5EvvRc4tXwbz-46" value="" style="endArrow=none;html=1;edgeStyle=orthogonalEdgeStyle;rounded=0;exitX=0.5;exitY=0.5;exitDx=0;exitDy=0;exitPerimeter=0;entryX=0;entryY=0.5;entryDx=0;entryDy=0;" edge="1" parent="1" source="gtVNpjJV5EvvRc4tXwbz-24" target="gtVNpjJV5EvvRc4tXwbz-32">
          <mxGeometry relative="1" as="geometry">
            <mxPoint x="600" y="440" as="sourcePoint" />
            <mxPoint x="760" y="440" as="targetPoint" />
            <Array as="points">
              <mxPoint x="554" y="360" />
              <mxPoint x="554" y="615" />
            </Array>
          </mxGeometry>
        </mxCell>
        <mxCell id="gtVNpjJV5EvvRc4tXwbz-47" value="parent" style="edgeLabel;resizable=0;html=1;align=left;verticalAlign=bottom;" connectable="0" vertex="1" parent="gtVNpjJV5EvvRc4tXwbz-46">
          <mxGeometry x="-1" relative="1" as="geometry" />
        </mxCell>
        <mxCell id="gtVNpjJV5EvvRc4tXwbz-48" value="child" style="edgeLabel;resizable=0;html=1;align=right;verticalAlign=bottom;" connectable="0" vertex="1" parent="gtVNpjJV5EvvRc4tXwbz-46">
          <mxGeometry x="1" relative="1" as="geometry" />
        </mxCell>
        <mxCell id="gtVNpjJV5EvvRc4tXwbz-49" value="" style="endArrow=none;html=1;edgeStyle=orthogonalEdgeStyle;rounded=0;exitX=0.5;exitY=0.5;exitDx=0;exitDy=0;exitPerimeter=0;entryX=0;entryY=0.5;entryDx=0;entryDy=0;" edge="1" parent="1" source="gtVNpjJV5EvvRc4tXwbz-3" target="gtVNpjJV5EvvRc4tXwbz-31">
          <mxGeometry relative="1" as="geometry">
            <mxPoint x="600" y="440" as="sourcePoint" />
            <mxPoint x="760" y="440" as="targetPoint" />
            <Array as="points">
              <mxPoint x="570" y="175" />
              <mxPoint x="570" y="495" />
            </Array>
          </mxGeometry>
        </mxCell>
        <mxCell id="gtVNpjJV5EvvRc4tXwbz-50" value="parent" style="edgeLabel;resizable=0;html=1;align=left;verticalAlign=bottom;" connectable="0" vertex="1" parent="gtVNpjJV5EvvRc4tXwbz-49">
          <mxGeometry x="-1" relative="1" as="geometry" />
        </mxCell>
        <mxCell id="gtVNpjJV5EvvRc4tXwbz-51" value="child" style="edgeLabel;resizable=0;html=1;align=right;verticalAlign=bottom;" connectable="0" vertex="1" parent="gtVNpjJV5EvvRc4tXwbz-49">
          <mxGeometry x="1" relative="1" as="geometry" />
        </mxCell>
        <mxCell id="gtVNpjJV5EvvRc4tXwbz-55" value="" style="endArrow=none;html=1;edgeStyle=orthogonalEdgeStyle;rounded=0;exitX=0.5;exitY=0.5;exitDx=0;exitDy=0;exitPerimeter=0;entryX=1;entryY=0.5;entryDx=0;entryDy=0;" edge="1" parent="1" source="gtVNpjJV5EvvRc4tXwbz-11" target="gtVNpjJV5EvvRc4tXwbz-10">
          <mxGeometry relative="1" as="geometry">
            <mxPoint x="910" y="440" as="sourcePoint" />
            <mxPoint x="1070" y="440" as="targetPoint" />
          </mxGeometry>
        </mxCell>
        <mxCell id="gtVNpjJV5EvvRc4tXwbz-56" value="parent" style="edgeLabel;resizable=0;html=1;align=left;verticalAlign=bottom;" connectable="0" vertex="1" parent="gtVNpjJV5EvvRc4tXwbz-55">
          <mxGeometry x="-1" relative="1" as="geometry" />
        </mxCell>
        <mxCell id="gtVNpjJV5EvvRc4tXwbz-57" value="child" style="edgeLabel;resizable=0;html=1;align=right;verticalAlign=bottom;" connectable="0" vertex="1" parent="gtVNpjJV5EvvRc4tXwbz-55">
          <mxGeometry x="1" relative="1" as="geometry" />
        </mxCell>
        <mxCell id="gtVNpjJV5EvvRc4tXwbz-58" value="Extends" style="endArrow=block;endSize=16;endFill=0;html=1;rounded=0;" edge="1" parent="1" source="gtVNpjJV5EvvRc4tXwbz-21" target="gtVNpjJV5EvvRc4tXwbz-11">
          <mxGeometry width="160" relative="1" as="geometry">
            <mxPoint x="910" y="440" as="sourcePoint" />
            <mxPoint x="1070" y="440" as="targetPoint" />
          </mxGeometry>
        </mxCell>
        <mxCell id="gtVNpjJV5EvvRc4tXwbz-59" value="" style="endArrow=none;html=1;edgeStyle=orthogonalEdgeStyle;rounded=0;entryX=1;entryY=0.5;entryDx=0;entryDy=0;exitX=0.5;exitY=0.5;exitDx=0;exitDy=0;exitPerimeter=0;" edge="1" parent="1" source="gtVNpjJV5EvvRc4tXwbz-11" target="gtVNpjJV5EvvRc4tXwbz-33">
          <mxGeometry relative="1" as="geometry">
            <mxPoint x="910" y="440" as="sourcePoint" />
            <mxPoint x="1070" y="440" as="targetPoint" />
          </mxGeometry>
        </mxCell>
        <mxCell id="gtVNpjJV5EvvRc4tXwbz-60" value="parent" style="edgeLabel;resizable=0;html=1;align=left;verticalAlign=bottom;" connectable="0" vertex="1" parent="gtVNpjJV5EvvRc4tXwbz-59">
          <mxGeometry x="-1" relative="1" as="geometry" />
        </mxCell>
        <mxCell id="gtVNpjJV5EvvRc4tXwbz-61" value="child" style="edgeLabel;resizable=0;html=1;align=right;verticalAlign=bottom;" connectable="0" vertex="1" parent="gtVNpjJV5EvvRc4tXwbz-59">
          <mxGeometry x="1" relative="1" as="geometry" />
        </mxCell>
        <mxCell id="gtVNpjJV5EvvRc4tXwbz-64" value="" style="endArrow=none;html=1;edgeStyle=orthogonalEdgeStyle;rounded=0;entryX=1;entryY=0.5;entryDx=0;entryDy=0;" edge="1" parent="1" source="gtVNpjJV5EvvRc4tXwbz-11" target="gtVNpjJV5EvvRc4tXwbz-29">
          <mxGeometry relative="1" as="geometry">
            <mxPoint x="910" y="440" as="sourcePoint" />
            <mxPoint x="1070" y="440" as="targetPoint" />
          </mxGeometry>
        </mxCell>
        <mxCell id="gtVNpjJV5EvvRc4tXwbz-65" value="parent" style="edgeLabel;resizable=0;html=1;align=left;verticalAlign=bottom;" connectable="0" vertex="1" parent="gtVNpjJV5EvvRc4tXwbz-64">
          <mxGeometry x="-1" relative="1" as="geometry" />
        </mxCell>
        <mxCell id="gtVNpjJV5EvvRc4tXwbz-66" value="child" style="edgeLabel;resizable=0;html=1;align=right;verticalAlign=bottom;" connectable="0" vertex="1" parent="gtVNpjJV5EvvRc4tXwbz-64">
          <mxGeometry x="1" relative="1" as="geometry" />
        </mxCell>
        <mxCell id="gtVNpjJV5EvvRc4tXwbz-67" value="" style="endArrow=none;html=1;edgeStyle=orthogonalEdgeStyle;rounded=0;exitX=0.5;exitY=0.5;exitDx=0;exitDy=0;exitPerimeter=0;entryX=1;entryY=0.5;entryDx=0;entryDy=0;" edge="1" parent="1" source="gtVNpjJV5EvvRc4tXwbz-11" target="gtVNpjJV5EvvRc4tXwbz-31">
          <mxGeometry relative="1" as="geometry">
            <mxPoint x="910" y="440" as="sourcePoint" />
            <mxPoint x="1070" y="440" as="targetPoint" />
          </mxGeometry>
        </mxCell>
        <mxCell id="gtVNpjJV5EvvRc4tXwbz-68" value="parent" style="edgeLabel;resizable=0;html=1;align=left;verticalAlign=bottom;" connectable="0" vertex="1" parent="gtVNpjJV5EvvRc4tXwbz-67">
          <mxGeometry x="-1" relative="1" as="geometry" />
        </mxCell>
        <mxCell id="gtVNpjJV5EvvRc4tXwbz-69" value="child" style="edgeLabel;resizable=0;html=1;align=right;verticalAlign=bottom;" connectable="0" vertex="1" parent="gtVNpjJV5EvvRc4tXwbz-67">
          <mxGeometry x="1" relative="1" as="geometry" />
        </mxCell>
        <mxCell id="gtVNpjJV5EvvRc4tXwbz-70" value="" style="endArrow=none;html=1;edgeStyle=orthogonalEdgeStyle;rounded=0;exitX=0.5;exitY=0.5;exitDx=0;exitDy=0;exitPerimeter=0;entryX=1;entryY=0.5;entryDx=0;entryDy=0;" edge="1" parent="1" source="gtVNpjJV5EvvRc4tXwbz-11" target="gtVNpjJV5EvvRc4tXwbz-30">
          <mxGeometry relative="1" as="geometry">
            <mxPoint x="910" y="440" as="sourcePoint" />
            <mxPoint x="1070" y="440" as="targetPoint" />
          </mxGeometry>
        </mxCell>
        <mxCell id="gtVNpjJV5EvvRc4tXwbz-71" value="parent" style="edgeLabel;resizable=0;html=1;align=left;verticalAlign=bottom;" connectable="0" vertex="1" parent="gtVNpjJV5EvvRc4tXwbz-70">
          <mxGeometry x="-1" relative="1" as="geometry" />
        </mxCell>
        <mxCell id="gtVNpjJV5EvvRc4tXwbz-72" value="child" style="edgeLabel;resizable=0;html=1;align=right;verticalAlign=bottom;" connectable="0" vertex="1" parent="gtVNpjJV5EvvRc4tXwbz-70">
          <mxGeometry x="1" relative="1" as="geometry" />
        </mxCell>
        <mxCell id="gtVNpjJV5EvvRc4tXwbz-75" value="" style="endArrow=none;html=1;edgeStyle=orthogonalEdgeStyle;rounded=0;exitX=0.5;exitY=0.5;exitDx=0;exitDy=0;exitPerimeter=0;entryX=1;entryY=0.5;entryDx=0;entryDy=0;" edge="1" parent="1" source="gtVNpjJV5EvvRc4tXwbz-11" target="gtVNpjJV5EvvRc4tXwbz-32">
          <mxGeometry relative="1" as="geometry">
            <mxPoint x="910" y="440" as="sourcePoint" />
            <mxPoint x="1070" y="440" as="targetPoint" />
          </mxGeometry>
        </mxCell>
        <mxCell id="gtVNpjJV5EvvRc4tXwbz-76" value="parent" style="edgeLabel;resizable=0;html=1;align=left;verticalAlign=bottom;" connectable="0" vertex="1" parent="gtVNpjJV5EvvRc4tXwbz-75">
          <mxGeometry x="-1" relative="1" as="geometry" />
        </mxCell>
        <mxCell id="gtVNpjJV5EvvRc4tXwbz-77" value="child" style="edgeLabel;resizable=0;html=1;align=right;verticalAlign=bottom;" connectable="0" vertex="1" parent="gtVNpjJV5EvvRc4tXwbz-75">
          <mxGeometry x="1" relative="1" as="geometry" />
        </mxCell>
        <mxCell id="gtVNpjJV5EvvRc4tXwbz-78" value="" style="endArrow=none;html=1;edgeStyle=orthogonalEdgeStyle;rounded=0;exitX=0.5;exitY=0.5;exitDx=0;exitDy=0;exitPerimeter=0;entryX=0;entryY=0.5;entryDx=0;entryDy=0;" edge="1" parent="1" source="gtVNpjJV5EvvRc4tXwbz-4" target="gtVNpjJV5EvvRc4tXwbz-10">
          <mxGeometry relative="1" as="geometry">
            <mxPoint x="370" y="710" as="sourcePoint" />
            <mxPoint x="530" y="710" as="targetPoint" />
          </mxGeometry>
        </mxCell>
        <mxCell id="gtVNpjJV5EvvRc4tXwbz-79" value="parent" style="edgeLabel;resizable=0;html=1;align=left;verticalAlign=bottom;" connectable="0" vertex="1" parent="gtVNpjJV5EvvRc4tXwbz-78">
          <mxGeometry x="-1" relative="1" as="geometry" />
        </mxCell>
        <mxCell id="gtVNpjJV5EvvRc4tXwbz-80" value="child" style="edgeLabel;resizable=0;html=1;align=right;verticalAlign=bottom;" connectable="0" vertex="1" parent="gtVNpjJV5EvvRc4tXwbz-78">
          <mxGeometry x="1" relative="1" as="geometry" />
        </mxCell>
      </root>
    </mxGraphModel>
  </diagram>
</mxfile>
